<svg xmlns="http://www.w3.org/2000/svg" viewBox="0 0 217.69 197.76"><defs><style>.cls-1{fill:none;}.cls-2{fill:#10262d;}.cls-3{fill:#fff;}.cls-4{fill:#efeae1;}</style></defs><g id="Layer_2" data-name="Layer 2"><g id="Ñëîé_1" data-name="Ñëîé 1"><path class="cls-1" d="M108.79,194.77a95.89,95.89,0,0,1-70-161.35A95.27,95.27,0,0,1,105.6,3.05Q107.25,3,108.9,3a95.89,95.89,0,0,1,70,161.36,95.26,95.26,0,0,1-66.82,30.36Q110.44,194.77,108.79,194.77Z"/><path class="cls-2" d="M108.79,155.83A57,57,0,0,1,106.91,42c.66,0,1.33,0,2,0a57,57,0,0,1,1.88,113.87Zm.11-109.91c-.61,0-1.23,0-1.85,0a52.68,52.68,0,1,0,1.85,0Z"/><path class="cls-2" d="M108.79,197.76A98.88,98.88,0,0,1,105.49.06c1.14,0,2.28-.06,3.41-.06a98.88,98.88,0,0,1,72.19,166.39,98.24,98.24,0,0,1-68.89,31.32C111.06,197.75,109.92,197.76,108.79,197.76ZM108.9,4q-1.64,0-3.27.06a94.89,94.89,0,0,0,3.16,189.72c1.09,0,2.18,0,3.27-.05A94.89,94.89,0,0,0,174.73,30.6,94.35,94.35,0,0,0,108.9,4Z"/><path class="cls-2" d="M108.79,190.78A91.85,91.85,0,0,1,41.73,36.17,91.27,91.27,0,0,1,105.73,7c1,0,2.12,0,3.17,0A91.85,91.85,0,0,1,176,161.6a91.26,91.26,0,0,1-64,29.12C110.91,190.76,109.84,190.78,108.79,190.78Zm.11-151.84-2.08,0a60.23,60.23,0,1,0,2.08,0Z"/><path class="cls-3" d="M45.81,40.62,57.07,30.48h0L62,35.82l-2.34,2.11h0a19.25,19.25,0,0,0-3.2-2.88c-.26-.06-.61.1-1.05.5l-.39.35,3.31,3.67A2.61,2.61,0,0,0,60,40.5a2.35,2.35,0,0,0,1.17-.36l0,0a2.37,2.37,0,0,0-.39.77,2,2,0,0,0,.11,1.26,3.22,3.22,0,0,0,.73,1.1l2.91,3.23c.57.63,1,1,1.14.94a.91.91,0,0,0,.59-.31l.57-.51a0,0,0,0,1,0,0l1.64,1.81s0,0,0,0l-6,5.36h0l-1.64-1.82a0,0,0,0,1,0,0l.56-.51c.31-.28.42-.53.35-.75a3.87,3.87,0,0,0-.54-.76l-3.39-3.76a3.58,3.58,0,0,0-1.11-.67,1.94,1.94,0,0,0-1.3,0l-.33.16a0,0,0,0,1,0,0l.14-.25a2,2,0,0,0,.2-.92,2.08,2.08,0,0,0-.18-.81,4.88,4.88,0,0,0-.48-.89l-3.35-3.72-.42.38q-.68.6-.54,1a4.74,4.74,0,0,0,.85,1.31c.41.51,1,1.21,1.74,2.09L50.7,46h0L45.8,40.65Z"/><path class="cls-3" d="M65.84,24.75l9.73-4.83h0l1.19,2.4s0,0,0,0l-.7.35a.46.46,0,0,0-.26.7q2.89,4,3,4.06a3.75,3.75,0,0,0,1.09.72,1.85,1.85,0,0,0,.8.15,2.33,2.33,0,0,0,.73-.18l0,.06a1.39,1.39,0,0,0-.35.7,2.13,2.13,0,0,0,0,1.26,4.13,4.13,0,0,0,.33.9s0,0,0,.05q2.58,3.48,3,4a2.34,2.34,0,0,0,.62.52.77.77,0,0,0,.66-.08l.25-.12s0,0,0,0l1.09,2.19s0,0,0,0l-6.4,3.18s0,0,0,0l-1.09-2.19,0,0,.24-.12q.63-.32.66-.51a1.32,1.32,0,0,0-.13-.38A10.31,10.31,0,0,0,79.3,36l-4,2v0q.39,1.41.42,1.47l.08.16c.19.37.42.53.7.49a1.3,1.3,0,0,0,.33-.13L77,40h0l1.09,2.19s0,0,0,0l-5.47,2.72s0,0,0,0l-1.08-2.19s0,0,0,0l.2-.09a1,1,0,0,0,.64-.9,14.46,14.46,0,0,0-.69-3.1l-.76-2.7a3.25,3.25,0,0,0-1.2-1.32,2.7,2.7,0,0,0-.69-.16h-.18l0-.07a1.23,1.23,0,0,0,.25-.17,1.82,1.82,0,0,0,.62-.91,6.2,6.2,0,0,0,.07-1.8c-.8-2.88-1.22-4.35-1.25-4.41a.46.46,0,0,0-.68-.27l-.75.38s0,0,0,0l-1.19-2.39Zm6.37,2c1.07,3.91,1.7,6.18,1.88,6.83,0,0,0,0,0,0s0,0,0,0l1-.46,1.41-.7v0l-4.21-5.67Z"/><path class="cls-3" d="M84.89,16.42l14.89-2.87,0,0c.55,2.78,1,5.15,1.39,7.09l-3.09.59s0,0,0,0a18.35,18.35,0,0,0-1.27-4.12c-.18-.19-.57-.22-1.15-.11l-.51.1L96.08,22a2.6,2.6,0,0,0,1,1.67,2.36,2.36,0,0,0,1.19.3V24a2.58,2.58,0,0,0-.74.46A2.12,2.12,0,0,0,97,25.58,3.74,3.74,0,0,0,97,26.91l.82,4.26c.16.84.32,1.3.49,1.4a1,1,0,0,0,.67,0l.75-.15s0,0,0,0l.46,2.4s0,0,0,0l-7.87,1.51s0,0,0,0L91.88,34s0,0,0,0l.74-.15c.41-.08.64-.23.69-.46a3.52,3.52,0,0,0-.07-.93l-1-5a3.65,3.65,0,0,0-.6-1.14,1.86,1.86,0,0,0-1.1-.68l-.37,0s0,0,0-.06l.25-.13a2.17,2.17,0,0,0,.64-.69,1.72,1.72,0,0,0,.26-.79,4.53,4.53,0,0,0,.06-1l-1-4.91-.56.11c-.58.11-.91.3-1,.56a4.94,4.94,0,0,0,0,1.56c.09.65.23,1.55.41,2.69l-3.09.6h0l-1.42-7.08Z"/><path class="cls-3" d="M109.23,13l15.09,1.43,0,0c-.25,2.83-.47,5.22-.65,7.19l-3.14-.3s0,0,0,0a18.46,18.46,0,0,0,0-4.3c-.13-.24-.48-.38-1.08-.44l-.51-.05-.47,4.92a2.64,2.64,0,0,0,.47,1.88,2.41,2.41,0,0,0,1.06.62V24a2.67,2.67,0,0,0-.84.23,2.14,2.14,0,0,0-.86.94,3.55,3.55,0,0,0-.31,1.29l-.41,4.32c-.08.85-.06,1.34.08,1.48a.94.94,0,0,0,.63.22l.76.07s0,0,0,0l-.23,2.44h0l-8-.76s0,0,0,0l.23-2.44s0,0,0,0l.76.08c.41,0,.68-.05.79-.26a3.36,3.36,0,0,0,.19-.91l.48-5a3.51,3.51,0,0,0-.26-1.27,1.94,1.94,0,0,0-.86-1l-.34-.13a0,0,0,0,1,0-.06l.28-.06a2.08,2.08,0,0,0,.81-.48,1.92,1.92,0,0,0,.47-.68,4.42,4.42,0,0,0,.34-1l.47-5-.56-.05c-.6-.06-1,0-1.09.27a4.33,4.33,0,0,0-.39,1.51c-.1.65-.22,1.55-.37,2.69l-3.14-.29h0L109.2,13Z"/><path class="cls-3" d="M140.94,19.26l.33.13a6.09,6.09,0,0,1,2.33,1.84,5.83,5.83,0,0,1,.7,1.09,7.79,7.79,0,0,1,.67,2.4A10.17,10.17,0,0,1,145,27a14.61,14.61,0,0,1-.44,2.68,2.38,2.38,0,0,0-.13.82,2,2,0,0,0,.66,1.34,3.33,3.33,0,0,0,.34.24l0,0a2,2,0,0,0-1.23.14,2.4,2.4,0,0,0-.57.46,2.75,2.75,0,0,0-.51.9,14.23,14.23,0,0,1-3.39,4.67,9,9,0,0,1-1.83,1.17,7.17,7.17,0,0,1-1.4.42,6.52,6.52,0,0,1-3.67-.36,6.43,6.43,0,0,1-3-2.48,6.74,6.74,0,0,1-.71-1.64,7.06,7.06,0,0,1-.32-1.82,14.19,14.19,0,0,1,.09-2.36,19.77,19.77,0,0,1,.56-2.53,1.83,1.83,0,0,0,.15-.54l0,0,0-.08a2,2,0,0,0-.53-2.59l-.07,0v0l.33.07a2.31,2.31,0,0,0,.69-.06,1.88,1.88,0,0,0,1.05-.7,22.47,22.47,0,0,1,1.34-2.06,14,14,0,0,1,1.83-2,6.89,6.89,0,0,1,4.49-1.8A6.1,6.1,0,0,1,140.94,19.26ZM136,27l-.08.11a2.26,2.26,0,0,0,.13.63,1.68,1.68,0,0,0,.78.89l0,0a2,2,0,0,0-1.2.15,1.88,1.88,0,0,0-.54.38l-.22.56a36.29,36.29,0,0,0-1.64,5,5.22,5.22,0,0,0-.06.87,1.24,1.24,0,0,0,.78,1l.08,0c.72.29,1.45-.17,2.17-1.38a10.18,10.18,0,0,0,.61-1.27l1.41-3.55a1.9,1.9,0,0,0-.65-1.36l-.22-.16v0a2.19,2.19,0,0,0,1.28-.13,1.25,1.25,0,0,0,.38-.29,26.42,26.42,0,0,0,1.51-4.2c.19-1-.05-1.65-.74-1.93s-1.31,0-1.86.91a22.42,22.42,0,0,0-1.83,3.61Z"/><path class="cls-3" d="M164.15,33.22l.27.22a6,6,0,0,1,1.64,2.48,5.79,5.79,0,0,1,.33,1.25,7.91,7.91,0,0,1-.11,2.49,10.63,10.63,0,0,1-.67,2.21,14.7,14.7,0,0,1-1.26,2.41A2.29,2.29,0,0,0,164,45a1.91,1.91,0,0,0,.21,1.47,2.62,2.62,0,0,0,.24.34l0,0a1.91,1.91,0,0,0-1.21-.25,2.12,2.12,0,0,0-.68.26c-.12,0-.38.26-.77.69a16.39,16.39,0,0,1-2.26,2A15,15,0,0,1,157.06,51a8.17,8.17,0,0,1-2.09.54,7.44,7.44,0,0,1-1.47,0,6.42,6.42,0,0,1-5.44-4.77,6.64,6.64,0,0,1-.16-1.78,7.3,7.3,0,0,1,.27-1.83,14.39,14.39,0,0,1,.81-2.22,21.41,21.41,0,0,1,1.32-2.23,1.89,1.89,0,0,0,.32-.46l0,0,.06-.06a2.05,2.05,0,0,0,.3-2.63l-.06-.05,0,0a1.63,1.63,0,0,0,.28.16,2.26,2.26,0,0,0,.68.17,2,2,0,0,0,1.22-.34,21.89,21.89,0,0,1,1.91-1.54,13.57,13.57,0,0,1,2.36-1.32,7,7,0,0,1,4.82-.31A6.2,6.2,0,0,1,164.15,33.22ZM157,39l-.1.08a2.47,2.47,0,0,0-.07.63,1.72,1.72,0,0,0,.46,1.1l0,0a1.88,1.88,0,0,0-1.19-.23,2.06,2.06,0,0,0-.63.19l-.39.46a37,37,0,0,0-3.09,4.2,4.54,4.54,0,0,0-.33.8,1.23,1.23,0,0,0,.45,1.16l.06.05c.59.51,1.42.29,2.49-.63a9.83,9.83,0,0,0,1-1l2.46-2.94a1.93,1.93,0,0,0-.2-1.48l-.17-.23,0,0a2.07,2.07,0,0,0,1.25.28,1.42,1.42,0,0,0,.45-.15,26.53,26.53,0,0,0,2.75-3.53c.49-.9.46-1.58-.11-2.06s-1.25-.39-2.05.28a22.41,22.41,0,0,0-2.86,2.87Z"/><path class="cls-3" d="M159.87,142.47l3.58-5.17a10.9,10.9,0,0,1,2.68-2.82,3.54,3.54,0,0,1,4.32.06,10.93,10.93,0,0,1,2.33,2.37,3.64,3.64,0,0,1,.32,1.45,2.81,2.81,0,0,1-.27,1.14,1.77,1.77,0,0,0-.12.28l.23.16a9.85,9.85,0,0,1,1-.73,6.69,6.69,0,0,1,.89-.44,3.35,3.35,0,0,1,.88-.18,6.41,6.41,0,0,1,3.68,1.35l.32.22a4.8,4.8,0,0,1,1.33,1.49,3.88,3.88,0,0,1,.37,1,4.54,4.54,0,0,1-.4,2.52,10,10,0,0,1-.68,1.34c-.22.41-.83,1.33-1.82,2.77l-2.83,4.1s0,0,0,0l-1.78-1.23v0l.48-.69a.58.58,0,0,0,.07-.59,3,3,0,0,0-.84-.76l-3.86-2.67a2.15,2.15,0,0,0-1.36-.31,1.73,1.73,0,0,0-1,.48l0,0a1.73,1.73,0,0,0,.1-1.19,2.08,2.08,0,0,0-.33-.65,2.15,2.15,0,0,0-.43-.41l-2.8-1.95c-.62-.42-1-.59-1.19-.49a.63.63,0,0,0-.38.28l-.45.65,0,0-1.94-1.35Zm5.29-3.48,3.24,2.24,1,.67.52-.75c.27-.4.14-1-.41-1.73a5.41,5.41,0,0,0-1.22-1,.53.53,0,0,1-.14-.12c-.89-.62-1.63-.7-2.22-.27a3.25,3.25,0,0,0-.51.58Zm7.68,5.28,4.39,3,.5-.73c.37-.53.15-1.24-.67-2.13a5.92,5.92,0,0,0-.82-.68l-.07,0c-.93-.65-1.65-.85-2.15-.61a2.15,2.15,0,0,0-.94.82Z"/><path class="cls-3" d="M168.18,130.31l2.52-6.41h0l2.2.87s0,0,0,0l-.2.5c-.12.31-.11.53,0,.66a2.26,2.26,0,0,0,.8.47l3.09,1.22a2.18,2.18,0,0,0,1.75,0,1.91,1.91,0,0,0,.76-.71h0a1.85,1.85,0,0,0,.13,1.12,3.23,3.23,0,0,0,.4.55,2.25,2.25,0,0,0,.68.48,6.78,6.78,0,0,0,3.71.72,1.47,1.47,0,0,0,1.17-1l0-.07c.19-.5,0-1.08-.66-1.76a8.68,8.68,0,0,0-2.74-1.55l-.19-.08a2.16,2.16,0,0,0-1.29,0,1.61,1.61,0,0,0-.61.37,1.34,1.34,0,0,0-.34.4h0a2.8,2.8,0,0,0,0-.83,1.86,1.86,0,0,0-.66-1,3.47,3.47,0,0,0-1-.53L175,122.7c-.51-.2-.86-.24-1-.11a.83.83,0,0,0-.27.4l-.19.48s0,0,0,0l-2.2-.87s0,0,0,0l2.23-5.67h0l2.2.86s0,0,0,0l-.18.46c-.13.34-.12.58,0,.71a2.23,2.23,0,0,0,.82.48l3.37,1.33a2,2,0,0,0,1.17,0,1.82,1.82,0,0,0,1-.81h0a1.65,1.65,0,0,0,.15,1.16,1.82,1.82,0,0,0,.44.57,2.09,2.09,0,0,0,.48.35l.39.15a12.7,12.7,0,0,1,5.26,3.49,4.15,4.15,0,0,1,.7,4.32,5.74,5.74,0,0,1-3.42,3.66,5.22,5.22,0,0,1-1.62.37,7.08,7.08,0,0,1-1.4,0,19.54,19.54,0,0,1-2.42-.45c-.72-.19-1.2-.34-1.46-.44l-.11,0a1.83,1.83,0,0,0-2.42.7l0,0,0-.28a1.78,1.78,0,0,0-.4-1.24,2.51,2.51,0,0,0-.78-.58L172,130.41c-.54-.21-.9-.24-1.09-.11a1,1,0,0,0-.25.39l-.2.5s0,0,0,0l-2.2-.87S168.17,130.33,168.18,130.31Z"/><path class="cls-3" d="M174.7,107.69l.06-.42a7.36,7.36,0,0,1,.92-2.62,6.1,6.1,0,0,1,.67-.92s.06,0,.13-.13l-.93-.25,0,0,.36-2.78,0,0,6.78.88s0,0,0,0l-.65,5s0,0,0,0a8.54,8.54,0,0,0-3.95.22,1,1,0,0,0-.68.76v0a1.21,1.21,0,0,0,.52,1.21,14.5,14.5,0,0,0,3,1,6.18,6.18,0,0,0,.61.11h.07c1.14.15,1.89-.14,2.25-.86a1.2,1.2,0,0,0,.15-.3h0s0,.13,0,.25a2,2,0,0,0,1.43,1.54c1.12.14,2.56.24,4.34.29,1.35-.1,2.08-.59,2.2-1.49a2.06,2.06,0,0,0-.32-1.22,1.51,1.51,0,0,0-.56-.35,8.37,8.37,0,0,0-1.71-.49l-1.18-.15c-.46-.06-.76,0-.9.08a1.7,1.7,0,0,0-.24.84v.12s0,0,0,0l-2.38-.31s0,0,0,0l.91-7s0,0,0,0l.35,0,2.05.27a.78.78,0,0,0,.27.53,1.42,1.42,0,0,0,.68.32c2.79.33,4.82.57,6.09.74v0l-.38,2.95s-.2.05-.59.05h-.88v.13a4.86,4.86,0,0,1,.65.8,4.93,4.93,0,0,1,.73,3.55,5.19,5.19,0,0,1-1.78,3.51,6.5,6.5,0,0,1-1.17.87,7.5,7.5,0,0,1-1.38.6,9.61,9.61,0,0,1-2,.42,16.56,16.56,0,0,1-2.28.08l-1.43-.07a2.36,2.36,0,0,0-.91.34l-.23.17a1.55,1.55,0,0,0-.38.7H183a2.65,2.65,0,0,0,0-.33,1.84,1.84,0,0,0-.7-1.14,2.11,2.11,0,0,0-.82-.35,12.3,12.3,0,0,1-1.71-.55,10.75,10.75,0,0,1-2-1.14A9,9,0,0,1,176,111.7a6.7,6.7,0,0,1-.91-1.31A5.05,5.05,0,0,1,174.7,107.69Z"/><path class="cls-2" d="M214.73,23.89l-.56-1.32a1,1,0,0,0-.63-.59,1.07,1.07,0,0,0-.86.1l-1.23.76A467.57,467.57,0,0,0,130.29,85.3l-1.38-1.59c-1.75-2-5-1.41-8.41,1.52a11,11,0,0,0-3.14,4.1,3.79,3.79,0,0,0,.49,4l1,1.13L112.51,100a1,1,0,0,0-.35.77v.55a15.42,15.42,0,0,1-3.3,8.57,15.39,15.39,0,0,1-3.31-8.56v-.56a1,1,0,0,0-.35-.77l-6.33-5.52,1-1.13a3.79,3.79,0,0,0,.49-4,11,11,0,0,0-3.14-4.1c-3.36-2.93-6.66-3.53-8.41-1.52L87.4,85.3A467.57,467.57,0,0,0,6.24,22.84L5,22.08a1.07,1.07,0,0,0-.86-.1,1,1,0,0,0-.63.59L3,23.89C2.63,24.66-4.89,43,5.39,70.16l.27.71a1.05,1.05,0,0,0,.86.67l.74.08A37.91,37.91,0,0,1,18.7,75.35c8,4.07,13.18,10.25,15.54,18.37l.26.88a1,1,0,0,0,1,.75h.92a30.34,30.34,0,0,1,11.25,2.86c7.23,3.47,11.6,9.44,13,17.76l-5.5,6.31a3.79,3.79,0,0,0-.49,4,11,11,0,0,0,3.14,4.11c3.36,2.93,6.66,3.52,8.41,1.52L71,126.46l2.57,2.23a1,1,0,0,0,1.35,0l.82-.69a13.27,13.27,0,0,1,1.23-.93l-.76,3.66a.94.94,0,0,0,0,.41L64.53,141.3a1.06,1.06,0,0,0-.34.62l-.07.45s-.86,5.2-5.33,12.47c-4.22,6.87-12.61,17.11-28.6,26.9l-2.81,1.72a1.05,1.05,0,0,0-.48,1.09,1,1,0,0,0,.84.82l3.26.56a47.83,47.83,0,0,0,5.84.6l.5,0h.07c17.3.54,40-7.21,60.65-20.71,3.46-2.26,7.08-4.77,10.79-7.46,3.7,2.69,7.32,5.2,10.78,7.46,20,13.06,41.88,20.73,59,20.73l1.69,0h.07l.5,0a47.83,47.83,0,0,0,5.84-.6l3.26-.56a1,1,0,0,0,.84-.82,1.05,1.05,0,0,0-.48-1.09l-2.81-1.72c-16-9.79-24.38-20-28.6-26.9-4.47-7.27-5.33-12.42-5.33-12.47l-.07-.45a1.06,1.06,0,0,0-.34-.62l-11.64-10.15a1.14,1.14,0,0,0,0-.41l-.76-3.66A11.7,11.7,0,0,1,142,128l.82.69a1,1,0,0,0,1.35,0l2.57-2.23,4.76,5.47c1.75,2,5.05,1.41,8.41-1.52A11,11,0,0,0,163,126.3a3.79,3.79,0,0,0-.49-4L157,116c1.39-8.32,5.76-14.29,13-17.76a30.34,30.34,0,0,1,11.25-2.86h.92a1,1,0,0,0,1-.75l.26-.88C185.81,85.6,191,79.42,199,75.35a38,38,0,0,1,11.43-3.73l.75-.08a1.05,1.05,0,0,0,.86-.67l.27-.71C222.58,43,215.06,24.66,214.73,23.89Z"/><path class="cls-3" d="M96.82,163.93c-20.39,13.31-43,21-59.89,20.32h0a42.36,42.36,0,0,1-5.55-.57c31.86-19.5,35-41,35-41l28.07-24.47a21.18,21.18,0,0,0,13.19-4.15c6.76-4.79,6.79-12.76,6.79-12.76l7.62-6.64,24.89,28.56-3.48,3A16.88,16.88,0,0,0,140,124h0a13.57,13.57,0,0,0-2.44-1l1.54,7.47A344.16,344.16,0,0,1,96.82,163.93Z"/><polygon class="cls-2" points="111.81 134.99 127.46 138.08 125.89 139.44 110.09 136.41 111.81 134.99"/><polygon class="cls-2" points="95.79 148.48 111.44 151.57 109.88 152.94 94.07 149.9 95.79 148.48"/><polygon class="cls-2" points="90.89 151.99 106.55 155.08 104.98 156.45 89.17 153.41 90.89 151.99"/><polygon class="cls-2" points="69.86 166.56 85.16 169.32 83.6 170.68 67.79 167.65 69.86 166.56"/><polygon class="cls-2" points="87.97 154.54 103.63 157.63 92.05 164.69 78.06 161.16 87.97 154.54"/><polygon class="cls-2" points="109.07 137.37 124.72 140.47 115.86 148.19 100.06 145.15 109.07 137.37"/><path class="cls-2" d="M119.4,128.66,134,132.37l3.27-2.85-1.36-5.85s-5.14-2.59-8-1S119.4,128.66,119.4,128.66Z"/><path class="cls-4" d="M96.82,163.93c-20.39,13.31-43,21-59.89,20.32.86-.21,28.56-7.06,44.22-14.69,15.91-7.73,30.83-19.83,38-25.55s17.47-14.8,17.47-14.8l-1.08-4.94c-5.63-2-8.8-.68-9.09-.51,7-4.84,13.39.14,13.56.27a13.57,13.57,0,0,0-2.44-1l1.54,7.47A344.16,344.16,0,0,1,96.82,163.93Z"/><path class="cls-2" d="M27.92,184.35l2.81-1.72c16.17-9.9,24.66-20.28,29-27.25,4.63-7.53,5.46-12.8,5.47-12.85l.07-.45.34-.3L94,117l.54.06a20.27,20.27,0,0,0,12.35-3.93c6.13-4.34,6.26-11.68,6.26-11.76v-.55l.42-.37,8.55-7.46,26.51,30.43-5.21,4.54-.81-.69a16.5,16.5,0,0,0-3.16-2.08l-.23-.11h0L140.5,131l-.51.48c-.19.18-20,18.82-42.5,33.54h0c-20.56,13.43-43,21.08-60.11,20.54h0l-.49,0a44.26,44.26,0,0,1-5.71-.59Zm39.6-41a42.82,42.82,0,0,1-5.64,13.17c-4.15,6.8-12.14,16.72-26.92,26.36.56.05,1.14.08,1.72.11H37c16.7.69,38.82-6.83,59.16-20.11s38.44-29.83,41.65-32.8L136,121.37l1.92.49a14.4,14.4,0,0,1,2.69,1.06l.23.11a18.61,18.61,0,0,1,2.6,1.64l1.77-1.54L121.93,96.44l-6.29,5.48a17.94,17.94,0,0,1-7.28,13.18,22.9,22.9,0,0,1-13.47,4.4Z"/><path class="cls-2" d="M137.18,124a13.79,13.79,0,0,0-5.34-1.24,10.57,10.57,0,0,0-5.2,1.33c-.4.23-.78.47-1.16.74s-.73.55-1.12.87l-2.28,1.89-4.58,3.78Q108.32,139,99,146.35c-3.12,2.45-6.24,4.89-9.42,7.27s-6.36,4.73-9.68,6.92-6.6,4.38-10,6.48c-1.68,1-3.38,2.07-5.12,3-.86.48-1.74,1-2.63,1.4a20.34,20.34,0,0,1-2.79,1.19L59.2,172a20.1,20.1,0,0,0,2.66-1.17c.87-.45,1.73-.93,2.58-1.43,1.7-1,3.38-2,5-3.11,3.32-2.13,6.58-4.36,9.85-6.6s6.4-4.62,9.52-7,6.21-4.9,9.28-7.39q9.2-7.5,18.23-15.2l4.52-3.84,2.27-1.93c.36-.31.78-.66,1.2-1s.88-.6,1.34-.87a12.36,12.36,0,0,1,6.15-1.67,15.77,15.77,0,0,1,6.17,1.32Z"/><path class="cls-2" d="M31.8,184.85,31,182.52c39.05-14.15,37.76-37,37.74-37.25l0-.64,27.27-22.41h.46c.05,0,5.33,0,13.31-5.12,7.81-5,8.49-12.44,8.52-12.76l0-.54.43-.34,6.64-5.14,1.51,2-6.22,4.82A20.81,20.81,0,0,1,111,119.19c-7.36,4.74-12.63,5.42-14.22,5.51l-25.62,21c0,1.84-.42,7.2-4.32,13.82C62.58,166.86,53,177.17,31.8,184.85Z"/><rect class="cls-2" x="66.92" y="141.78" width="2.48" height="4.33" transform="translate(-88.97 117.91) rotate(-55.25)"/><rect class="cls-2" x="94.16" y="118.07" width="2.48" height="5.57" transform="translate(-35.49 39.77) rotate(-19.94)"/><rect class="cls-2" x="115.7" y="99.94" width="2.48" height="5.9" transform="translate(-32.18 147.87) rotate(-58.13)"/><path class="cls-2" d="M125,119.47l1-2.41c2.59-6.31,2.18-12.58-1.11-16.77l1.94-1.53c3.46,4.39,4.25,10.64,2.26,17a22.23,22.23,0,0,1,15.36,2.71l-1.33,2.09a19.78,19.78,0,0,0-15.62-1.88Z"/><path class="cls-2" d="M66.86,168.42,79.29,171s-9.62,5.47-18.37,7.79-15.14,5.11-23.59,5.11-7.08-1-7.08-1,14.58-4.37,22.56-10.23,7.42-.74,7.42-.74Z"/><path class="cls-2" d="M125.13,104.54c1.55,5-.41,13.13-4.38,18s-20,19.47-29.91,26.9c-3,2.23-7.29,5.86-11.54,9-10,7.24-20.62,14.42-20.62,14.42L55.4,171l33.77-25.76,28.41-23S124.8,114.14,125.13,104.54Z"/><path class="cls-2" d="M61.48,165.33c2.07-2,4.17-3.68,5.92-5.69a16.53,16.53,0,0,0,2.27-3.26A14.54,14.54,0,0,0,71,152.55a14.93,14.93,0,0,1-.45,4.18,18.55,18.55,0,0,1-1.57,4c-1.34,2.55-3.1,4.82-4.52,7.06Z"/><path class="cls-2" d="M64.63,163c2-2,4-3.76,5.65-5.8A18.85,18.85,0,0,0,72.49,154a14.73,14.73,0,0,0,1.35-3.79,15.33,15.33,0,0,1-.44,4.13,20.6,20.6,0,0,1-1.48,4c-1.24,2.55-2.86,4.88-4.23,7.15Z"/><path class="cls-2" d="M67.77,160.74a77.55,77.55,0,0,0,5.4-5.89,21.6,21.6,0,0,0,2.13-3.3,15.24,15.24,0,0,0,1.34-3.77,15.45,15.45,0,0,1-.42,4.1,22.39,22.39,0,0,1-1.38,4,80.77,80.77,0,0,1-4,7.25Z"/><path class="cls-2" d="M70.91,158.45a66.9,66.9,0,0,0,5.15-6,23.58,23.58,0,0,0,2.06-3.32,15.53,15.53,0,0,0,1.32-3.74,15.56,15.56,0,0,1-.41,4.06,24.11,24.11,0,0,1-1.27,3.94,68.78,68.78,0,0,1-3.69,7.33Z"/><path class="cls-2" d="M74.06,156.16a61.47,61.47,0,0,0,4.9-6.08,26.73,26.73,0,0,0,2-3.35A16.35,16.35,0,0,0,82.24,143a16.62,16.62,0,0,1-.39,4A27.59,27.59,0,0,1,80.69,151a63.81,63.81,0,0,1-3.43,7.4Z"/><path class="cls-2" d="M77.2,153.86a54.59,54.59,0,0,0,4.66-6.15,29.44,29.44,0,0,0,1.89-3.38A17.55,17.55,0,0,0,85,140.64a17.44,17.44,0,0,1-.36,4,31.85,31.85,0,0,1-1.06,3.91A57.72,57.72,0,0,1,80.45,156Z"/><path class="cls-2" d="M80.35,151.57a50.4,50.4,0,0,0,4.43-6.23,35.73,35.73,0,0,0,1.8-3.41,18.58,18.58,0,0,0,1.26-3.68,18.86,18.86,0,0,1-.33,4,35.34,35.34,0,0,1-1,3.91,51.77,51.77,0,0,1-2.93,7.54Z"/><path class="cls-2" d="M83.5,149.28a48.18,48.18,0,0,0,4.24-6.14,27.11,27.11,0,0,0,2.88-7,27.87,27.87,0,0,1-1.08,7.71,49.73,49.73,0,0,1-2.72,7.43Z"/><path class="cls-2" d="M86.64,147a42.47,42.47,0,0,0,4-6,32,32,0,0,0,2.77-6.81,33.14,33.14,0,0,1-1,7.5A45.32,45.32,0,0,1,90,148.94Z"/><path class="cls-2" d="M89.79,144.69a39.18,39.18,0,0,0,3.7-6A38.47,38.47,0,0,0,96.13,132a39.7,39.7,0,0,1-.8,7.32,42.19,42.19,0,0,1-2.13,7.22Z"/><path class="cls-2" d="M92.94,142.4a35.78,35.78,0,0,0,3.51-6,45.2,45.2,0,0,0,2.49-6.74,46.46,46.46,0,0,1-.63,7.31,38.3,38.3,0,0,1-1.93,7.27Z"/><path class="cls-2" d="M96.09,140.1a39.53,39.53,0,0,0,5.64-12.71,47.72,47.72,0,0,1-.43,7.23,36.15,36.15,0,0,1-1.74,7.24Z"/><path class="cls-2" d="M99.38,137.52A40.32,40.32,0,0,0,104.55,125a51.8,51.8,0,0,1-.21,7,36.49,36.49,0,0,1-1.43,7.1Z"/><path class="cls-2" d="M102.77,134.66a43.66,43.66,0,0,0,4.56-11.77,59.43,59.43,0,0,1,0,6.54,37.64,37.64,0,0,1-1,6.67Z"/><path class="cls-2" d="M106.21,131.49A48,48,0,0,0,110.1,121a49.76,49.76,0,0,1-.19,11.74Z"/><path class="cls-2" d="M109.66,128a50.36,50.36,0,0,0,3.26-9.21,51.1,51.1,0,0,1,.5,10.19Z"/><path class="cls-2" d="M112.84,126.19c.32-.81.61-1.67.88-2.54s.53-1.76.77-2.65c.48-1.79.93-3.6,1.32-5.43.26,1.85.46,3.72.62,5.6.08.94.14,1.88.19,2.84s.06,1.92,0,2.92Z"/><path class="cls-2" d="M116,122.83a49.63,49.63,0,0,0,2.7-10.78,52,52,0,0,1,1.12,11.53Z"/><path class="cls-2" d="M117.07,120.73a22.64,22.64,0,0,0,1.74-2.82,25.29,25.29,0,0,0,1.38-3.14,33.9,33.9,0,0,0,1-3.33,33.11,33.11,0,0,0,.68-3.49,30.65,30.65,0,0,1,.28,3.59,34.31,34.31,0,0,1-.11,3.65,27.65,27.65,0,0,1-.53,3.68,26,26,0,0,1-1,3.68Z"/><path class="cls-3" d="M153.2,130.43,119.57,91.85c-1.84-2.11,5.78-8.75,7.62-6.65l33.63,38.59C162.66,125.9,155,132.54,153.2,130.43Z"/><path class="cls-2" d="M152.27,131.24,118.64,92.66c-1.34-1.53-.33-4.14,2.55-6.65s5.6-3.15,6.93-1.62L161.75,123c1.34,1.52.33,4.13-2.55,6.65S153.6,132.77,152.27,131.24ZM120.52,91.05l33.59,38.54c.33.09,1.7-.3,3.47-1.83s2.33-2.85,2.29-3.18L126.28,86c-.33-.09-1.7.3-3.47,1.84S120.48,90.73,120.52,91.05Z"/><rect class="cls-2" x="141.6" y="78.7" width="1.06" height="54.85" transform="translate(-34.75 119.51) rotate(-41.08)"/><rect class="cls-2" x="137.83" y="81.99" width="1.06" height="54.85" transform="translate(-37.83 117.85) rotate(-41.08)"/><path class="cls-2" d="M141.35,106.81c1.29,1.15,2.51,2.37,3.69,3.61.6.61,1.17,1.25,1.76,1.88l1.71,1.92,1.67,2c.54.67,1.1,1.32,1.62,2,1.07,1.34,2.11,2.71,3.07,4.15-1.29-1.15-2.5-2.37-3.69-3.61-.6-.61-1.17-1.25-1.76-1.88l-1.71-1.92L146,113c-.54-.67-1.09-1.32-1.62-2C143.35,109.62,142.31,108.25,141.35,106.81Z"/><path class="cls-2" d="M140.61,107.46c1.29,1.14,2.51,2.36,3.69,3.6.6.62,1.18,1.26,1.76,1.88l1.71,1.93,1.67,1.95c.54.67,1.1,1.32,1.63,2,1.06,1.34,2.1,2.71,3.07,4.15-1.3-1.15-2.51-2.36-3.7-3.6-.6-.62-1.17-1.26-1.76-1.89L147,115.56l-1.67-2c-.54-.66-1.09-1.32-1.62-2C142.61,110.26,141.57,108.89,140.61,107.46Z"/><path class="cls-2" d="M139.87,108.1c1.29,1.15,2.51,2.37,3.69,3.61.6.61,1.18,1.25,1.76,1.88l1.71,1.92,1.67,2c.55.66,1.1,1.32,1.63,2,1.07,1.35,2.11,2.72,3.07,4.16-1.3-1.15-2.51-2.37-3.7-3.61-.6-.62-1.17-1.26-1.75-1.88l-1.72-1.92-1.66-2c-.55-.67-1.1-1.32-1.63-2C141.87,110.9,140.83,109.54,139.87,108.1Z"/><path class="cls-2" d="M139.13,108.74c1.3,1.15,2.51,2.37,3.7,3.61.6.62,1.17,1.25,1.75,1.88l1.72,1.92,1.67,2c.54.67,1.09,1.32,1.62,2,1.07,1.34,2.11,2.71,3.07,4.15-1.29-1.15-2.51-2.37-3.69-3.61-.61-.61-1.18-1.25-1.76-1.88l-1.71-1.92-1.67-2c-.54-.66-1.1-1.32-1.63-2C141.14,111.55,140.1,110.18,139.13,108.74Z"/><path class="cls-2" d="M125.28,88.38a14.86,14.86,0,0,1,1.89,1.53c.58.55,1.13,1.12,1.65,1.72s1,1.23,1.49,1.88a13.88,13.88,0,0,1,1.25,2.07,14,14,0,0,1-1.88-1.52c-.58-.55-1.13-1.13-1.66-1.73a22.66,22.66,0,0,1-1.48-1.88A14.27,14.27,0,0,1,125.28,88.38Z"/><path class="cls-2" d="M124.55,89a15.67,15.67,0,0,1,1.88,1.53c.58.55,1.13,1.13,1.65,1.73s1,1.22,1.49,1.87a14,14,0,0,1,1.25,2.08,14.76,14.76,0,0,1-1.88-1.53c-.58-.55-1.13-1.13-1.66-1.73s-1-1.22-1.48-1.87A14,14,0,0,1,124.55,89Z"/><path class="cls-2" d="M123.81,89.67a14,14,0,0,1,1.88,1.53c.58.54,1.13,1.12,1.66,1.72a22.66,22.66,0,0,1,1.48,1.88,14.27,14.27,0,0,1,1.26,2.07,13.44,13.44,0,0,1-1.89-1.53c-.58-.55-1.13-1.12-1.65-1.72s-1-1.23-1.49-1.88A13.88,13.88,0,0,1,123.81,89.67Z"/><path class="cls-2" d="M123.07,90.31A14.09,14.09,0,0,1,125,91.84c.58.55,1.13,1.12,1.66,1.72s1,1.23,1.48,1.88a14.83,14.83,0,0,1,1.26,2.07A14.79,14.79,0,0,1,127.46,96c-.58-.55-1.13-1.13-1.65-1.73s-1-1.22-1.48-1.87A14.94,14.94,0,0,1,123.07,90.31Z"/><rect class="cls-2" x="123.49" y="90.26" width="5.06" height="2.48" transform="translate(-29.1 105.33) rotate(-41.08)"/><path class="cls-2" d="M154.35,128.33l.08-1.06c.86.06,3.14-1.92,3.2-2.79l1.06.07c-.07,1-1.29,2.14-1.66,2.47S155.37,128.4,154.35,128.33Z"/><polygon class="cls-2" points="157.41 125.76 155.72 123.29 158.17 125.02 157.41 125.76"/><polygon class="cls-2" points="156.79 126.29 155.17 123.77 157.56 125.57 156.79 126.29"/><polygon class="cls-2" points="156.16 126.81 154.63 124.24 156.96 126.12 156.16 126.81"/><polygon class="cls-2" points="155.53 127.34 154.08 124.72 156.35 126.67 155.53 127.34"/><polygon class="cls-2" points="154.91 127.86 153.53 125.19 155.75 127.22 154.91 127.86"/><path class="cls-3" d="M212.64,24.78s7.6,18-2.47,44.58c0,0-22.75,2.56-28.91,23.72,0,0-23.47.26-26.64,23.59L130.15,88.61A461.7,461.7,0,0,1,212.64,24.78Z"/><path class="cls-2" d="M153.36,91.07c.75-1,1.53-2,2.35-2.92s1.65-1.85,2.52-2.72a63.18,63.18,0,0,1,5.44-4.93,64.89,64.89,0,0,0-4.49,5.72c-.7,1-1.35,2-2,3s-1.2,2.07-1.74,3.12Z"/><path class="cls-2" d="M199.89,54.34a66.49,66.49,0,0,0-7,3.4c-2.29,1.26-4.52,2.63-6.71,4.07a119.63,119.63,0,0,0-12.58,9.55,120,120,0,0,1,11.85-10.55c2.1-1.63,4.25-3.2,6.48-4.66a67.47,67.47,0,0,1,7-4.06Z"/><path class="cls-2" d="M196.24,39.89S143.06,77.4,135.79,95.07l8.52,9.77s1.61-12.68,27-35C182,60.4,190.16,54.7,196,51.27A47.57,47.57,0,0,0,196.24,39.89Z"/><path class="cls-4" d="M187,63.66a4.06,4.06,0,1,1,.5-5.81A4.12,4.12,0,0,1,187,63.66Z"/><path class="cls-4" d="M155.08,93a4.91,4.91,0,1,1,.6-7A5,5,0,0,1,155.08,93Z"/><path class="cls-2" d="M155.48,119.54l-27-31,.84-.82a464.86,464.86,0,0,1,82.7-64l1.23-.75.56,1.33c.32.75,7.67,18.75-2.45,45.5l-.27.7-.75.09a38.45,38.45,0,0,0-11.8,3.84c-8.21,4.2-13.61,10.59-16.06,19l-.26.88h-.92a31.24,31.24,0,0,0-11.69,3c-7.86,3.77-12.48,10.35-13.73,19.55ZM131.86,88.67l22,25.23A26.21,26.21,0,0,1,168.6,95a34,34,0,0,1,11.73-3.12,33.2,33.2,0,0,1,17.13-19.71,41.72,41.72,0,0,1,11.81-3.94c7.86-21.31,4.15-37,2.71-41.6A462.11,462.11,0,0,0,131.86,88.67Z"/><path class="cls-2" d="M205.37,69.23c8.68-22.61,4.07-39,3.06-42.08l2.35-.78c1.49,4.5,5.65,20.94-3.1,43.75Z"/><path class="cls-2" d="M198.25,72.23c0-.07,2.25-7.14,3.65-20.56,1.38-13.21-1-19.74-1-19.8l2.32-.87c.1.28,2.58,7.06,1.13,20.93C202.93,65.64,200.7,72.69,200.6,73Z"/><path class="cls-2" d="M194.43,74.3c0-.07,2.25-7.14,3.65-20.55s-1-19.74-1-19.8l2.32-.88c.1.29,2.58,7.06,1.13,20.93-1.43,13.71-3.66,20.77-3.75,21.06Z"/><path class="cls-2" d="M149.57,111.48c3.5-12.92,11.31-17.51,17.25-19.08a27.17,27.17,0,0,1,11.25-.49,21.31,21.31,0,0,1,9-17.92,28.14,28.14,0,0,1,9.51-4.54l.32,1.38a27.38,27.38,0,0,0-9,4.33,19.77,19.77,0,0,0-8.4,17.6l0,.94-.92-.23a25.7,25.7,0,0,0-11.49.31c-8.08,2.17-13.53,8.25-16.2,18.07Z"/><path class="cls-2" d="M183.72,64.5a3.56,3.56,0,0,1-2.77-.74,4.83,4.83,0,0,1-1-1.19,4.7,4.7,0,0,1-.56-1.56,4.77,4.77,0,0,1,.7-3.31,5.08,5.08,0,0,1,1.2-1.29,5.15,5.15,0,0,1,1.59-.79,4.77,4.77,0,0,1,1.76-.19,5.09,5.09,0,0,1,1.71.45,4.79,4.79,0,0,1,2.37,2.41,4.46,4.46,0,0,1,.12,3.19,3.61,3.61,0,0,1-1.95,2.11,3.87,3.87,0,0,0,.85-4.76,3.86,3.86,0,1,0-4,5.67Z"/><path class="cls-2" d="M185.8,62.4a2.28,2.28,0,1,1,.22-3.22A2.28,2.28,0,0,1,185.8,62.4Z"/><rect class="cls-4" x="181.49" y="60.11" width="5.63" height="1.06" transform="translate(95.04 232.92) rotate(-80.82)"/><path class="cls-2" d="M153,94a4.12,4.12,0,0,1-3.32.36,5.22,5.22,0,0,1-1.63-.86,4.89,4.89,0,0,1-1.26-1.45,5.56,5.56,0,0,1-.63-3.89,5.92,5.92,0,0,1,.76-1.9,6.33,6.33,0,0,1,1.39-1.53,5.75,5.75,0,0,1,3.88-1.17,5.54,5.54,0,0,1,3.58,1.64,5.12,5.12,0,0,1,1.47,3.41,4.2,4.2,0,0,1-1.23,3.1,4.56,4.56,0,0,0,.43-3,4.49,4.49,0,1,0-6.4,4.88A4.4,4.4,0,0,0,153,94Z"/><path class="cls-2" d="M154.4,90.88a2.66,2.66,0,1,1-1.1-3.6A2.65,2.65,0,0,1,154.4,90.88Z"/><rect class="cls-4" x="151.43" y="86.32" width="1.23" height="6.55" transform="translate(-15.2 33.26) rotate(-11.89)"/><path class="cls-2" d="M197.1,61.74c-.39,2.08-1.19,3.19-3.06,3.59a14.77,14.77,0,0,0-4.24,2s2.94-1.05,4.44-.38c-2.67.58-6.16,2.52-7.62,4.9a18.26,18.26,0,0,1,10.59-3.82l.67-6.23Z"/><path class="cls-2" d="M180.07,78a20.84,20.84,0,0,0-4.55,6.64c-.37-3.12,1.55-7,1.55-7A14.68,14.68,0,0,0,173.82,86c-.84-1.84-.16-5.56-.16-5.56a10.56,10.56,0,0,0-1,5.76,5.14,5.14,0,0,1-1.24-2.81,3.12,3.12,0,0,0,.08,2.14,3.19,3.19,0,0,0-2.42-.57,5.13,5.13,0,0,1,2.6,1.62,10.54,10.54,0,0,0-5.84.25s3.78-.17,5.49.92a14.69,14.69,0,0,0-8.72,2.08s4.1-1.37,7.15-.58a20.79,20.79,0,0,0-7.21,3.6A26.77,26.77,0,0,1,176.31,90,19,19,0,0,1,180.07,78Z"/><path class="cls-2" d="M134.16,94.38a16,16,0,0,1,1.49-3.48,25,25,0,0,1,2-3c.73-.94,1.52-1.83,2.32-2.69s1.65-1.68,2.53-2.45c-.73.91-1.4,1.87-2,2.84a33.36,33.36,0,0,0-1.77,3,24.34,24.34,0,0,0-1.39,3.1,13.56,13.56,0,0,0-.73,3.14Z"/><path class="cls-2" d="M143.61,80.57c-1,1-1.85,1.93-2.72,2.94s-1.7,2-2.48,3.06a33,33,0,0,0-2.17,3.22,13.58,13.58,0,0,0-1.47,3.35L133,92.66c.18-.64-.12-1.47.18-2a14.35,14.35,0,0,1,2-2.67c.73-.78,1.48-1.52,2.26-2.22,1-.94,2-1.84,3-2.71S142.53,81.36,143.61,80.57Z"/><path class="cls-2" d="M130.7,90.41a16.21,16.21,0,0,1,3.08-3.75,44.77,44.77,0,0,1,3.48-3c2.4-1.89,4.88-3.63,7.42-5.27-2.29,2-4.51,4-6.58,6.19a44.18,44.18,0,0,0-2.95,3.35,14.51,14.51,0,0,0-2.21,3.55l-1.12-.52Z"/><path class="cls-2" d="M150.59,110.49c-1-6.36,5.84-15,8-16.9a24.37,24.37,0,0,0-9.16,9.15c.88-3.09,4.18-7.77,4.18-7.77a25.57,25.57,0,0,0-5.53,6,28.39,28.39,0,0,1,3-5.31s-5.56,4.61-6.82,8.25l5.91,7Z"/><path class="cls-2" d="M152.16,115a15.55,15.55,0,0,1,.81-3.21,29.18,29.18,0,0,1,1.2-2.94,30.81,30.81,0,0,1,1.51-2.77,16.48,16.48,0,0,1,1.89-2.49,15.77,15.77,0,0,0-1.41,2.74,24.62,24.62,0,0,0-1,2.89,28,28,0,0,0-.66,3,14.6,14.6,0,0,0-.23,2.89Z"/><path class="cls-2" d="M151.28,114.24a16.57,16.57,0,0,1,.81-3.21,30.24,30.24,0,0,1,1.21-2.94,25.38,25.38,0,0,1,1.51-2.76,16.51,16.51,0,0,1,1.88-2.5,16.13,16.13,0,0,0-1.41,2.74,27.83,27.83,0,0,0-1.65,5.86,13.76,13.76,0,0,0-.22,2.88Z"/><path class="cls-2" d="M150.41,113.44a16.29,16.29,0,0,1,.8-3.2,29.24,29.24,0,0,1,1.21-2.94,25.53,25.53,0,0,1,1.51-2.77,15.4,15.4,0,0,1,1.89-2.49,15.4,15.4,0,0,0-1.42,2.73,27.53,27.53,0,0,0-1,2.9c-.27,1-.49,2-.66,3a14.56,14.56,0,0,0-.22,2.89Z"/><path class="cls-2" d="M178.47,94.07c-.62-.07-1.33-.1-2-.11s-1.38,0-2.07.06a28.92,28.92,0,0,0-4.14.52c-.69.12-1.36.31-2.05.47s-1.35.38-2,.64a27.81,27.81,0,0,0-3.87,1.72A27,27,0,0,1,166,95.16c.63-.34,1.3-.6,2-.9s1.34-.53,2-.74a30.22,30.22,0,0,1,4.21-1.08c.72-.14,1.44-.25,2.17-.33S177.8,92,178.6,92Z"/><path class="cls-2" d="M178.15,93a57.54,57.54,0,0,1,2.42-6.56,18.72,18.72,0,0,1,1.75-3,20.41,20.41,0,0,1,2.27-2.63,20,20,0,0,0-1.81,2.9,18,18,0,0,0-1.22,3.15,56.47,56.47,0,0,0-1.34,6.66Z"/><path class="cls-2" d="M196,74.67a17,17,0,0,0-4.5,1.2,17.22,17.22,0,0,0-2.15,1.07,9.35,9.35,0,0,0-1.94,1.43A9.84,9.84,0,0,1,189,76.51a19.59,19.59,0,0,1,2-1.56,18.42,18.42,0,0,1,4.54-2.35Z"/><path class="cls-2" d="M196.44,72.92a22,22,0,0,0-3.71.82,13.91,13.91,0,0,0-3.52,1.64,14.63,14.63,0,0,1,3-2.59,22.66,22.66,0,0,1,3.61-1.92Z"/><polygon class="cls-2" points="210.66 30.75 202.99 35.49 203.52 46.4 212.12 41.33 210.66 30.75"/><polygon class="cls-2" points="211.82 43.27 203.41 48.44 202.97 50.98 212.31 45.27 211.82 43.27"/><path class="cls-2" d="M205.88,48.93a13.21,13.21,0,0,1-.43,2.8,20.5,20.5,0,0,1-.85,2.58,19.62,19.62,0,0,0,0-2.66,11.65,11.65,0,0,0-.45-2.5Z"/><path class="cls-2" d="M207.08,48.26a13.21,13.21,0,0,1-.43,2.8,20.64,20.64,0,0,1-.85,2.59,19.79,19.79,0,0,0,0-2.67,11.65,11.65,0,0,0-.45-2.5Z"/><path class="cls-2" d="M208.28,47.6a13.21,13.21,0,0,1-.43,2.8A20,20,0,0,1,207,53a19.64,19.64,0,0,0,0-2.66,11.65,11.65,0,0,0-.45-2.5Z"/><path class="cls-2" d="M209.48,46.93a13.21,13.21,0,0,1-.43,2.8,20.64,20.64,0,0,1-.85,2.59,19.62,19.62,0,0,0,0-2.66,11.43,11.43,0,0,0-.45-2.5Z"/><path class="cls-2" d="M210.68,46.27a13.21,13.21,0,0,1-.43,2.8,20,20,0,0,1-.85,2.58,19.64,19.64,0,0,0,0-2.66,11.65,11.65,0,0,0-.45-2.5Z"/><path class="cls-2" d="M200,69.86a26.4,26.4,0,0,1,6.65-2.07l1.11-3.73a13,13,0,0,1-6.6,1.59Z"/><polygon class="cls-2" points="205.19 65.57 207.56 59.83 206.9 66 205.19 65.57"/><polygon class="cls-2" points="203.89 66.23 206.25 60.49 205.6 66.66 203.89 66.23"/><polygon class="cls-2" points="202.58 66.88 204.95 61.15 204.3 67.32 202.58 66.88"/><polygon class="cls-2" points="201.28 67.54 203.65 61.8 202.99 67.97 201.28 67.54"/><path class="cls-3" d="M120.87,163.93c20.39,13.31,43,21,59.89,20.32h0a42.36,42.36,0,0,0,5.55-.57c-31.86-19.5-35-41-35-41l-28.07-24.47a21.18,21.18,0,0,1-13.19-4.15c-6.76-4.79-6.79-12.76-6.79-12.76l-7.62-6.64L70.75,123.25l3.48,3A16.88,16.88,0,0,1,77.65,124h0a13.57,13.57,0,0,1,2.44-1l-1.54,7.47A344.16,344.16,0,0,0,120.87,163.93Z"/><polygon class="cls-2" points="105.88 134.99 90.23 138.08 91.8 139.44 107.6 136.41 105.88 134.99"/><polygon class="cls-2" points="121.9 148.48 106.25 151.57 107.81 152.94 123.62 149.9 121.9 148.48"/><polygon class="cls-2" points="126.8 151.99 111.14 155.08 112.71 156.45 128.52 153.41 126.8 151.99"/><polygon class="cls-2" points="147.84 166.56 132.53 169.32 134.09 170.68 149.9 167.65 147.84 166.56"/><polygon class="cls-2" points="129.72 154.54 114.06 157.63 125.64 164.69 139.63 161.16 129.72 154.54"/><polygon class="cls-2" points="108.62 137.37 92.97 140.47 101.83 148.19 117.64 145.15 108.62 137.37"/><path class="cls-2" d="M98.29,128.66l-14.61,3.71-3.27-2.85,1.36-5.85s5.14-2.59,8-1S98.29,128.66,98.29,128.66Z"/><path class="cls-4" d="M120.87,163.93c20.39,13.31,43,21,59.89,20.32-.86-.21-28.56-7.06-44.22-14.69-15.91-7.73-30.83-19.83-38-25.55S81,129.21,81,129.21l1.08-4.94c5.63-2,8.8-.68,9.09-.51-7-4.84-13.39.14-13.56.27a13.57,13.57,0,0,1,2.44-1l-1.54,7.47A344.16,344.16,0,0,0,120.87,163.93Z"/><path class="cls-2" d="M189.77,184.35,187,182.63c-16.17-9.9-24.66-20.28-29-27.25-4.63-7.53-5.46-12.8-5.47-12.85l-.07-.45-.34-.3L123.65,117l-.53.06a20.28,20.28,0,0,1-12.36-3.93c-6.13-4.34-6.26-11.68-6.26-11.76v-.55l-.42-.37-8.55-7.46L69,123.37l5.21,4.54.81-.69a16.21,16.21,0,0,1,3.17-2.08l.22-.11h0L77.19,131l.51.48c.19.18,20,18.82,42.5,33.54h0c20.56,13.43,43,21.08,60.11,20.54h0l.49,0a44.26,44.26,0,0,0,5.71-.59Zm-39.6-41a42.82,42.82,0,0,0,5.64,13.17c4.15,6.8,12.15,16.72,26.92,26.36-.56.05-1.14.08-1.72.11h-.3c-16.7.69-38.82-6.83-59.16-20.11S83.11,133.07,79.9,130.1l1.81-8.73-1.92.49a14.4,14.4,0,0,0-2.69,1.06l-.23.11a18.61,18.61,0,0,0-2.6,1.64l-1.77-1.54L95.76,96.44l6.29,5.48a17.94,17.94,0,0,0,7.28,13.18,22.9,22.9,0,0,0,13.47,4.4Z"/><path class="cls-2" d="M80.51,124a13.79,13.79,0,0,1,5.34-1.24,10.57,10.57,0,0,1,5.2,1.33c.4.23.78.47,1.16.74s.73.55,1.12.87l2.28,1.89,4.58,3.78q9.18,7.56,18.48,14.94c3.12,2.45,6.24,4.89,9.42,7.27s6.36,4.73,9.68,6.92,6.6,4.38,10,6.48c1.68,1,3.38,2.07,5.12,3,.86.48,1.74,1,2.63,1.4a20.34,20.34,0,0,0,2.79,1.19l.21-.68a20.1,20.1,0,0,1-2.66-1.17c-.87-.45-1.73-.93-2.58-1.43-1.7-1-3.38-2-5-3.11-3.32-2.13-6.58-4.36-9.85-6.6s-6.4-4.62-9.52-7-6.21-4.9-9.28-7.39q-9.19-7.5-18.23-15.2l-4.52-3.84-2.27-1.93c-.36-.31-.78-.66-1.2-1s-.88-.6-1.34-.87a12.36,12.36,0,0,0-6.15-1.67,15.77,15.77,0,0,0-6.17,1.32Z"/><path class="cls-2" d="M185.89,184.85l.84-2.33c-39-14.15-37.76-37-37.74-37.25l0-.64-27.27-22.41h-.46s-5.33,0-13.31-5.12c-7.81-5-8.49-12.44-8.52-12.76l0-.54-.43-.34-6.64-5.14-1.51,2,6.22,4.82a20.81,20.81,0,0,0,9.58,14.08c7.36,4.74,12.63,5.42,14.22,5.51l25.62,21c0,1.84.42,7.2,4.32,13.82C155.11,166.86,164.68,177.17,185.89,184.85Z"/><rect class="cls-2" x="147.37" y="142.71" width="4.33" height="2.48" transform="translate(-55.37 110.88) rotate(-34.74)"/><rect class="cls-2" x="119.5" y="119.62" width="5.57" height="2.48" transform="translate(-33.02 194.61) rotate(-70.06)"/><rect class="cls-2" x="97.8" y="101.65" width="5.9" height="2.48" transform="translate(-39.14 68.7) rotate(-31.87)"/><path class="cls-2" d="M92.74,119.47l-1-2.41c-2.59-6.31-2.18-12.58,1.11-16.77l-1.94-1.53c-3.46,4.39-4.25,10.64-2.25,17a22.24,22.24,0,0,0-15.37,2.71l1.33,2.09a19.78,19.78,0,0,1,15.62-1.88Z"/><path class="cls-2" d="M150.83,168.42,138.4,171s9.62,5.47,18.37,7.79,15.15,5.11,23.59,5.11,7.08-1,7.08-1-14.58-4.37-22.56-10.23-7.41-.74-7.41-.74Z"/><path class="cls-2" d="M92.56,104.54c-1.55,5,.41,13.13,4.38,18s20,19.47,29.91,26.9c3,2.23,7.29,5.86,11.54,9,10,7.24,20.62,14.42,20.62,14.42l3.28-1.85-33.77-25.76-28.41-23S92.89,114.14,92.56,104.54Z"/><path class="cls-2" d="M156.21,165.33c-2.07-2-4.17-3.68-5.92-5.69a16.53,16.53,0,0,1-2.27-3.26,14.54,14.54,0,0,1-1.36-3.83,14.93,14.93,0,0,0,.45,4.18,18.55,18.55,0,0,0,1.57,4c1.34,2.55,3.1,4.82,4.52,7.06Z"/><path class="cls-2" d="M153.06,163c-2-2-4-3.76-5.65-5.8A18.85,18.85,0,0,1,145.2,154a14.73,14.73,0,0,1-1.35-3.79,15.74,15.74,0,0,0,.44,4.13,20.6,20.6,0,0,0,1.48,4c1.24,2.55,2.86,4.88,4.24,7.15Z"/><path class="cls-2" d="M149.92,160.74a77.55,77.55,0,0,1-5.4-5.89,21.6,21.6,0,0,1-2.13-3.3,15.24,15.24,0,0,1-1.34-3.77,15.45,15.45,0,0,0,.42,4.1,22.39,22.39,0,0,0,1.38,4,80.77,80.77,0,0,0,4,7.25Z"/><path class="cls-2" d="M146.78,158.45a66.9,66.9,0,0,1-5.15-6,23.58,23.58,0,0,1-2.06-3.32,15.53,15.53,0,0,1-1.32-3.74,15.56,15.56,0,0,0,.41,4.06,24.11,24.11,0,0,0,1.27,3.94,68.78,68.78,0,0,0,3.69,7.33Z"/><path class="cls-2" d="M143.63,156.16a61.47,61.47,0,0,1-4.9-6.08,26.73,26.73,0,0,1-2-3.35,16.35,16.35,0,0,1-1.31-3.71,16.62,16.62,0,0,0,.39,4A27.59,27.59,0,0,0,137,151a63.81,63.81,0,0,0,3.43,7.4Z"/><path class="cls-2" d="M140.49,153.86a54.59,54.59,0,0,1-4.66-6.15,29.44,29.44,0,0,1-1.89-3.38,17.55,17.55,0,0,1-1.29-3.69,18,18,0,0,0,.36,4,31.85,31.85,0,0,0,1.06,3.91,57.72,57.72,0,0,0,3.17,7.47Z"/><path class="cls-2" d="M137.34,151.57a50.4,50.4,0,0,1-4.43-6.23,35.73,35.73,0,0,1-1.8-3.41,18.58,18.58,0,0,1-1.26-3.68,18.86,18.86,0,0,0,.33,4,35.34,35.34,0,0,0,.95,3.91,51.77,51.77,0,0,0,2.93,7.54Z"/><path class="cls-2" d="M134.19,149.28a48.18,48.18,0,0,1-4.24-6.14,27.11,27.11,0,0,1-2.88-7,27.87,27.87,0,0,0,1.08,7.71,49.73,49.73,0,0,0,2.72,7.43Z"/><path class="cls-2" d="M131.05,147a42.47,42.47,0,0,1-4-6,32,32,0,0,1-2.77-6.81,33.14,33.14,0,0,0,1,7.5,45.32,45.32,0,0,0,2.41,7.31Z"/><path class="cls-2" d="M127.9,144.69a39.18,39.18,0,0,1-3.7-6,38.47,38.47,0,0,1-2.64-6.69,39.7,39.7,0,0,0,.8,7.32,42.19,42.19,0,0,0,2.13,7.22Z"/><path class="cls-2" d="M124.75,142.4a35.78,35.78,0,0,1-3.51-6,45.2,45.2,0,0,1-2.49-6.74,46.46,46.46,0,0,0,.63,7.31,38.3,38.3,0,0,0,1.93,7.27Z"/><path class="cls-2" d="M121.6,140.1A39.53,39.53,0,0,1,116,127.39a47.72,47.72,0,0,0,.43,7.23,36.15,36.15,0,0,0,1.74,7.24Z"/><path class="cls-2" d="M118.31,137.52A40.32,40.32,0,0,1,113.14,125a51.8,51.8,0,0,0,.21,7,36.49,36.49,0,0,0,1.43,7.1Z"/><path class="cls-2" d="M114.92,134.66a43.66,43.66,0,0,1-4.56-11.77,59.43,59.43,0,0,0,0,6.54,37.64,37.64,0,0,0,1,6.67Z"/><path class="cls-2" d="M111.48,131.49A48,48,0,0,1,107.59,121a49.76,49.76,0,0,0,.19,11.74Z"/><path class="cls-2" d="M108,128a50.36,50.36,0,0,1-3.26-9.21,51.1,51.1,0,0,0-.5,10.19Z"/><path class="cls-2" d="M104.85,126.19c-.32-.81-.61-1.67-.88-2.54s-.53-1.76-.77-2.65c-.48-1.79-.93-3.6-1.32-5.43-.26,1.85-.46,3.72-.62,5.6-.08.94-.14,1.88-.18,2.84s-.07,1.92,0,2.92Z"/><path class="cls-2" d="M101.74,122.83A49.63,49.63,0,0,1,99,112.05a52,52,0,0,0-1.12,11.53Z"/><path class="cls-2" d="M100.62,120.73a22.64,22.64,0,0,1-1.74-2.82,25.29,25.29,0,0,1-1.38-3.14,33.9,33.9,0,0,1-1-3.33,33.11,33.11,0,0,1-.68-3.49,30.65,30.65,0,0,0-.28,3.59,34.31,34.31,0,0,0,.11,3.65,27.65,27.65,0,0,0,.53,3.68,26,26,0,0,0,1.05,3.68Z"/><path class="cls-3" d="M64.49,130.43,98.12,91.85c1.84-2.11-5.78-8.75-7.62-6.65L56.87,123.79C55,125.9,62.65,132.54,64.49,130.43Z"/><path class="cls-2" d="M65.42,131.24,99.05,92.66c1.34-1.53.33-4.14-2.55-6.65s-5.6-3.15-6.93-1.62L55.94,123c-1.34,1.52-.33,4.13,2.55,6.65S64.09,132.77,65.42,131.24ZM97.17,91.05,63.58,129.59c-.33.09-1.7-.3-3.47-1.83s-2.33-2.85-2.29-3.18L91.41,86c.33-.09,1.7.3,3.47,1.84S97.21,90.73,97.17,91.05Z"/><rect class="cls-2" x="48.13" y="105.6" width="54.85" height="1.06" transform="translate(-54.09 93.35) rotate(-48.92)"/><rect class="cls-2" x="51.9" y="108.88" width="54.85" height="1.06" transform="translate(-55.28 97.32) rotate(-48.92)"/><path class="cls-2" d="M76.34,106.81c-1.29,1.15-2.51,2.37-3.69,3.61-.6.61-1.17,1.25-1.76,1.88l-1.71,1.92-1.67,2c-.54.67-1.1,1.32-1.62,2-1.07,1.34-2.11,2.71-3.07,4.15,1.29-1.15,2.5-2.37,3.69-3.61.6-.61,1.17-1.25,1.76-1.88L70,114.92l1.67-2c.54-.67,1.09-1.32,1.62-2C74.34,109.62,75.38,108.25,76.34,106.81Z"/><path class="cls-2" d="M77.08,107.46c-1.29,1.14-2.51,2.36-3.69,3.6-.6.62-1.17,1.26-1.76,1.88l-1.71,1.93-1.67,1.95c-.54.67-1.1,1.32-1.63,2-1.06,1.34-2.1,2.71-3.07,4.15,1.3-1.15,2.51-2.36,3.7-3.6.6-.62,1.17-1.26,1.76-1.89l1.71-1.92,1.67-2c.54-.66,1.09-1.32,1.62-2C75.08,110.26,76.12,108.89,77.08,107.46Z"/><path class="cls-2" d="M77.82,108.1c-1.29,1.15-2.51,2.37-3.69,3.61-.6.61-1.18,1.25-1.76,1.88l-1.71,1.92-1.67,2c-.55.66-1.1,1.32-1.63,2-1.07,1.35-2.11,2.72-3.07,4.16,1.3-1.15,2.51-2.37,3.7-3.61.6-.62,1.17-1.26,1.75-1.88l1.72-1.92,1.66-2c.55-.67,1.1-1.32,1.63-2C75.82,110.9,76.86,109.54,77.82,108.1Z"/><path class="cls-2" d="M78.56,108.74c-1.3,1.15-2.51,2.37-3.7,3.61-.6.62-1.17,1.25-1.75,1.88l-1.72,1.92-1.67,2c-.54.67-1.09,1.32-1.62,2C67,121.45,66,122.82,65,124.26c1.3-1.15,2.51-2.37,3.69-3.61.61-.61,1.18-1.25,1.76-1.88l1.71-1.92,1.67-2c.54-.66,1.1-1.32,1.63-2C76.55,111.55,77.59,110.18,78.56,108.74Z"/><path class="cls-2" d="M92.41,88.38a14.86,14.86,0,0,0-1.89,1.53c-.58.55-1.13,1.12-1.65,1.72s-1,1.23-1.49,1.88a13.88,13.88,0,0,0-1.25,2.07A14,14,0,0,0,88,94.06c.58-.55,1.13-1.13,1.66-1.73a22.66,22.66,0,0,0,1.48-1.88A14.27,14.27,0,0,0,92.41,88.38Z"/><path class="cls-2" d="M93.14,89a15.67,15.67,0,0,0-1.88,1.53c-.58.55-1.13,1.13-1.65,1.73s-1,1.22-1.49,1.87a14,14,0,0,0-1.25,2.08,14.76,14.76,0,0,0,1.88-1.53c.58-.55,1.13-1.13,1.66-1.73s1-1.22,1.48-1.87A14,14,0,0,0,93.14,89Z"/><path class="cls-2" d="M93.88,89.67A14,14,0,0,0,92,91.2c-.58.54-1.13,1.12-1.66,1.72a22.66,22.66,0,0,0-1.48,1.88,13.39,13.39,0,0,0-1.25,2.07,14,14,0,0,0,1.88-1.53c.58-.55,1.13-1.12,1.65-1.72s1-1.23,1.49-1.88A13.88,13.88,0,0,0,93.88,89.67Z"/><path class="cls-2" d="M94.62,90.31a14.09,14.09,0,0,0-1.88,1.53c-.58.55-1.13,1.12-1.66,1.72s-1,1.23-1.48,1.88a14.83,14.83,0,0,0-1.26,2.07A14.79,14.79,0,0,0,90.23,96c.58-.55,1.13-1.13,1.65-1.73s1-1.22,1.48-1.87A14.94,14.94,0,0,0,94.62,90.31Z"/><rect class="cls-2" x="90.43" y="88.97" width="2.48" height="5.06" transform="translate(-37.54 100.48) rotate(-48.92)"/><path class="cls-2" d="M63.34,128.33l-.08-1.06c-.86.06-3.14-1.92-3.2-2.79l-1.06.07c.07,1,1.29,2.14,1.66,2.47S62.32,128.4,63.34,128.33Z"/><polygon class="cls-2" points="60.27 125.76 61.98 123.29 59.52 125.02 60.27 125.76"/><polygon class="cls-2" points="60.9 126.29 62.52 123.77 60.13 125.57 60.9 126.29"/><polygon class="cls-2" points="61.53 126.81 63.06 124.24 60.73 126.12 61.53 126.81"/><polygon class="cls-2" points="62.16 127.34 63.61 124.72 61.34 126.67 62.16 127.34"/><polygon class="cls-2" points="62.78 127.86 64.16 125.19 61.94 127.22 62.78 127.86"/><path class="cls-3" d="M5.05,24.78s-7.6,18,2.47,44.58c0,0,22.75,2.56,28.91,23.72,0,0,23.47.26,26.64,23.59L87.54,88.61A461.7,461.7,0,0,0,5.05,24.78Z"/><path class="cls-2" d="M64.33,91.07c-.75-1-1.53-2-2.35-2.92s-1.65-1.85-2.52-2.72A63.18,63.18,0,0,0,54,80.5a64.89,64.89,0,0,1,4.49,5.72c.7,1,1.35,2,2,3s1.2,2.07,1.74,3.12Z"/><path class="cls-2" d="M17.8,54.34a66.49,66.49,0,0,1,7,3.4c2.29,1.26,4.52,2.63,6.71,4.07A119.63,119.63,0,0,1,44.1,71.36,120,120,0,0,0,32.25,60.81c-2.1-1.63-4.25-3.2-6.48-4.66a67.47,67.47,0,0,0-6.95-4.06Z"/><path class="cls-2" d="M21.45,39.89S74.63,77.4,81.9,95.07l-8.52,9.77s-1.61-12.68-27-35C35.67,60.4,27.53,54.7,21.71,51.27A47.57,47.57,0,0,1,21.45,39.89Z"/><path class="cls-4" d="M30.67,63.66a4.06,4.06,0,1,0-.5-5.81A4.12,4.12,0,0,0,30.67,63.66Z"/><path class="cls-4" d="M62.61,93a4.91,4.91,0,1,0-.6-7A5,5,0,0,0,62.61,93Z"/><path class="cls-2" d="M62.21,119.54l27-31-.84-.82a464.86,464.86,0,0,0-82.7-64L4.47,23,3.91,24.3c-.32.75-7.67,18.75,2.45,45.5l.27.7.75.09a38.45,38.45,0,0,1,11.8,3.84c8.21,4.2,13.61,10.59,16.06,19l.26.88h.92a31.24,31.24,0,0,1,11.69,3c7.86,3.77,12.48,10.35,13.73,19.55ZM85.83,88.67l-22,25.23A26.21,26.21,0,0,0,49.09,95a33.91,33.91,0,0,0-11.73-3.12A33.2,33.2,0,0,0,20.23,72.18,41.72,41.72,0,0,0,8.42,68.24c-7.86-21.31-4.15-37-2.71-41.6A462.11,462.11,0,0,1,85.83,88.67Z"/><path class="cls-2" d="M12.32,69.23c-8.68-22.61-4.07-39-3.06-42.08l-2.35-.78C5.42,30.87,1.26,47.31,10,70.12Z"/><path class="cls-2" d="M19.44,72.23c0-.07-2.25-7.14-3.65-20.56-1.38-13.21,1-19.74,1-19.8L14.46,31c-.1.28-2.58,7.06-1.13,20.93C14.76,65.64,17,72.69,17.09,73Z"/><path class="cls-2" d="M23.26,74.3c0-.07-2.25-7.14-3.65-20.55s1-19.74,1-19.8l-2.32-.88c-.1.29-2.58,7.06-1.13,20.93,1.43,13.71,3.66,20.77,3.75,21.06Z"/><path class="cls-2" d="M68.12,111.48C64.62,98.56,56.81,94,50.87,92.4a27.17,27.17,0,0,0-11.25-.49,21.31,21.31,0,0,0-9-17.92,28.14,28.14,0,0,0-9.51-4.54l-.31,1.38a27.48,27.48,0,0,1,9,4.33,19.77,19.77,0,0,1,8.4,17.6l0,.94.92-.23a25.7,25.7,0,0,1,11.49.31C58.64,96,64.09,102,66.76,111.85Z"/><path class="cls-2" d="M34,64.5a3.56,3.56,0,0,0,2.77-.74,4.83,4.83,0,0,0,1-1.19A4.7,4.7,0,0,0,38.35,61a4.77,4.77,0,0,0-.7-3.31,5.08,5.08,0,0,0-1.2-1.29,5.15,5.15,0,0,0-1.59-.79,4.77,4.77,0,0,0-1.76-.19,5.09,5.09,0,0,0-1.71.45A4.79,4.79,0,0,0,29,58.29a4.46,4.46,0,0,0-.12,3.19,3.61,3.61,0,0,0,2,2.11A3.87,3.87,0,0,1,30,58.83a3.86,3.86,0,1,1,4,5.67Z"/><path class="cls-2" d="M31.89,62.4a2.28,2.28,0,1,0-.22-3.22A2.28,2.28,0,0,0,31.89,62.4Z"/><rect class="cls-4" x="32.85" y="57.83" width="1.06" height="5.63" transform="matrix(0.99, -0.16, 0.16, 0.99, -9.24, 6.1)"/><path class="cls-2" d="M64.67,94a4.12,4.12,0,0,0,3.32.36,5.22,5.22,0,0,0,1.63-.86,4.89,4.89,0,0,0,1.26-1.45,5.56,5.56,0,0,0,.63-3.89,5.92,5.92,0,0,0-.76-1.9,6.33,6.33,0,0,0-1.39-1.53,5.75,5.75,0,0,0-3.88-1.17,5.54,5.54,0,0,0-3.58,1.64,5.12,5.12,0,0,0-1.47,3.41,4.2,4.2,0,0,0,1.23,3.1,4.56,4.56,0,0,1-.43-3,4.49,4.49,0,1,1,6.4,4.88A4.4,4.4,0,0,1,64.67,94Z"/><path class="cls-2" d="M63.29,90.88a2.66,2.66,0,1,0,1.1-3.6A2.65,2.65,0,0,0,63.29,90.88Z"/><rect class="cls-4" x="62.37" y="88.97" width="6.55" height="1.23" transform="translate(-35.55 135.36) rotate(-78.11)"/><path class="cls-2" d="M20.59,61.74c.39,2.08,1.19,3.19,3.06,3.59a14.77,14.77,0,0,1,4.24,2S25,66.32,23.45,67c2.67.58,6.16,2.52,7.63,4.9a18.32,18.32,0,0,0-10.6-3.82l-.67-6.23Z"/><path class="cls-2" d="M37.62,78a20.84,20.84,0,0,1,4.55,6.64c.37-3.12-1.55-7-1.55-7A14.68,14.68,0,0,1,43.87,86c.84-1.84.16-5.56.16-5.56a10.56,10.56,0,0,1,1,5.76,5.14,5.14,0,0,0,1.24-2.81,3.12,3.12,0,0,1-.08,2.14,3.19,3.19,0,0,1,2.42-.57,5.13,5.13,0,0,0-2.6,1.62,10.54,10.54,0,0,1,5.84.25s-3.78-.17-5.49.92a14.69,14.69,0,0,1,8.72,2.08S51,88.41,48,89.2a20.79,20.79,0,0,1,7.21,3.6A26.77,26.77,0,0,0,41.38,90,19,19,0,0,0,37.62,78Z"/><path class="cls-2" d="M83.53,94.38A16,16,0,0,0,82,90.9a25,25,0,0,0-2-3c-.73-.94-1.52-1.83-2.32-2.69S76,83.53,75.16,82.76c.73.91,1.4,1.87,2,2.84a33.36,33.36,0,0,1,1.77,3,24.34,24.34,0,0,1,1.39,3.1,13.56,13.56,0,0,1,.73,3.14Z"/><path class="cls-2" d="M74.08,80.57c1,1,1.85,1.93,2.72,2.94s1.7,2,2.48,3.06a33,33,0,0,1,2.17,3.22,13.58,13.58,0,0,1,1.47,3.35l1.78-.48c-.18-.64.12-1.47-.18-2a14.35,14.35,0,0,0-2-2.67c-.73-.78-1.48-1.52-2.26-2.22-1-.94-2-1.84-3-2.71S75.16,81.36,74.08,80.57Z"/><path class="cls-2" d="M87,90.41a16.21,16.21,0,0,0-3.08-3.75,44.77,44.77,0,0,0-3.48-3C78,81.75,75.55,80,73,78.37c2.29,2,4.51,4,6.59,6.19,1,1.07,2,2.2,2.94,3.35a14.51,14.51,0,0,1,2.21,3.55l1.12-.52Z"/><path class="cls-2" d="M67.1,110.49c1-6.36-5.84-15-8-16.9a24.37,24.37,0,0,1,9.16,9.15C67.35,99.65,64.05,95,64.05,95a25.57,25.57,0,0,1,5.53,6,28.39,28.39,0,0,0-3-5.31s5.56,4.61,6.82,8.25l-5.9,7Z"/><path class="cls-2" d="M65.53,115a15.55,15.55,0,0,0-.81-3.21,29.18,29.18,0,0,0-1.2-2.94A30.81,30.81,0,0,0,62,106.12a16.48,16.48,0,0,0-1.89-2.49,15.77,15.77,0,0,1,1.41,2.74,24.62,24.62,0,0,1,1,2.89,28,28,0,0,1,.66,3,14.6,14.6,0,0,1,.23,2.89Z"/><path class="cls-2" d="M66.41,114.24A16.57,16.57,0,0,0,65.6,111a27.92,27.92,0,0,0-1.21-2.94,25.38,25.38,0,0,0-1.51-2.76,16.51,16.51,0,0,0-1.88-2.5,16.13,16.13,0,0,1,1.41,2.74,27.83,27.83,0,0,1,1.65,5.86,13.76,13.76,0,0,1,.22,2.88Z"/><path class="cls-2" d="M67.28,113.44a16.29,16.29,0,0,0-.8-3.2,29.24,29.24,0,0,0-1.21-2.94,25.53,25.53,0,0,0-1.51-2.77A15.4,15.4,0,0,0,61.87,102a15.4,15.4,0,0,1,1.42,2.73,27.53,27.53,0,0,1,1,2.9c.27,1,.49,2,.66,3a14.56,14.56,0,0,1,.22,2.89Z"/><path class="cls-2" d="M39.22,94.07c.62-.07,1.33-.1,2-.11s1.38,0,2.07.06a28.92,28.92,0,0,1,4.14.52c.69.12,1.36.31,2.05.47s1.35.38,2,.64a27.81,27.81,0,0,1,3.87,1.72,27,27,0,0,0-3.66-2.21c-.63-.34-1.3-.6-2-.9s-1.34-.53-2-.74a30.22,30.22,0,0,0-4.21-1.08c-.72-.14-1.44-.25-2.17-.33S39.89,92,39.09,92Z"/><path class="cls-2" d="M39.54,93a57.54,57.54,0,0,0-2.42-6.56,18.72,18.72,0,0,0-1.75-3,20.41,20.41,0,0,0-2.27-2.63,19.18,19.18,0,0,1,1.81,2.9,18,18,0,0,1,1.22,3.15,56.47,56.47,0,0,1,1.34,6.66Z"/><path class="cls-2" d="M21.74,74.67a17,17,0,0,1,4.5,1.2,17.22,17.22,0,0,1,2.15,1.07,9.35,9.35,0,0,1,1.94,1.43,9.84,9.84,0,0,0-1.62-1.86,19.35,19.35,0,0,0-6.49-3.91Z"/><path class="cls-2" d="M21.25,72.92a22,22,0,0,1,3.71.82,13.91,13.91,0,0,1,3.52,1.64,14.63,14.63,0,0,0-3.05-2.59,22.66,22.66,0,0,0-3.61-1.92Z"/><polygon class="cls-2" points="7.03 30.75 14.7 35.49 14.17 46.4 5.57 41.33 7.03 30.75"/><polygon class="cls-2" points="5.87 43.27 14.28 48.44 14.72 50.98 5.38 45.27 5.87 43.27"/><path class="cls-2" d="M11.81,48.93a13.21,13.21,0,0,0,.43,2.8,20.5,20.5,0,0,0,.85,2.58,19.62,19.62,0,0,1,0-2.66,11.65,11.65,0,0,1,.45-2.5Z"/><path class="cls-2" d="M10.61,48.26a13.21,13.21,0,0,0,.43,2.8,20.64,20.64,0,0,0,.85,2.59,19.79,19.79,0,0,1,0-2.67,11.65,11.65,0,0,1,.45-2.5Z"/><path class="cls-2" d="M9.41,47.6a13.21,13.21,0,0,0,.43,2.8A20,20,0,0,0,10.69,53a19.64,19.64,0,0,1,0-2.66,11.65,11.65,0,0,1,.45-2.5Z"/><path class="cls-2" d="M8.21,46.93a13.21,13.21,0,0,0,.43,2.8,20.64,20.64,0,0,0,.85,2.59,19.62,19.62,0,0,1,0-2.66,11.43,11.43,0,0,1,.45-2.5Z"/><path class="cls-2" d="M7,46.27a13.21,13.21,0,0,0,.43,2.8,20,20,0,0,0,.85,2.58,19.64,19.64,0,0,1,0-2.66,11.65,11.65,0,0,1,.45-2.5Z"/><path class="cls-2" d="M17.65,69.86A26.4,26.4,0,0,0,11,67.79L9.89,64.06a13,13,0,0,0,6.6,1.59Z"/><polygon class="cls-2" points="12.5 65.57 10.13 59.83 10.79 66 12.5 65.57"/><polygon class="cls-2" points="13.8 66.23 11.44 60.49 12.09 66.66 13.8 66.23"/><polygon class="cls-2" points="15.11 66.88 12.74 61.15 13.39 67.32 15.11 66.88"/><polygon class="cls-2" points="16.41 67.54 14.04 61.8 14.7 67.97 16.41 67.54"/><path class="cls-3" d="M41.9,103.73l1.1,6.2a10.89,10.89,0,0,1,.08,3.88,3.54,3.54,0,0,1-3.12,3,10.62,10.62,0,0,1-3.32,0,3.71,3.71,0,0,1-1.25-.81,2.92,2.92,0,0,1-.61-1,1.19,1.19,0,0,0-.11-.28l-.28,0a9.89,9.89,0,0,1-.18,1.21,6.56,6.56,0,0,1-.33.94,3.27,3.27,0,0,1-.5.74,6.34,6.34,0,0,1-3.56,1.64l-.39.07a5,5,0,0,1-2-.13,3.56,3.56,0,0,1-1-.46A4.55,4.55,0,0,1,25,116.66a9.37,9.37,0,0,1-.46-1.43c-.13-.45-.35-1.53-.65-3.25L23,107.07a0,0,0,0,1,0,0l2.13-.37v0l.15.83a.58.58,0,0,0,.37.47,3,3,0,0,0,1.13,0l4.62-.82a2.1,2.1,0,0,0,1.19-.74,1.72,1.72,0,0,0,.38-1H33a1.67,1.67,0,0,0,.77.92,2,2,0,0,0,.69.23,2.8,2.8,0,0,0,.59,0l3.36-.6c.74-.13,1.14-.29,1.19-.48a.56.56,0,0,0,.07-.47l-.13-.78v0l2.33-.41Zm-10.48,7.84-5.25.93.16.88c.11.63.76,1,2,1a5.59,5.59,0,0,0,1.07-.09h.07c1.12-.2,1.78-.56,2-1.08a2.19,2.19,0,0,0,.08-1.25Zm9.18-1.65-3.88.69c-.27,0-.67.12-1.2.24l.16.9c.08.47.58.78,1.5.94a5.45,5.45,0,0,0,1.6-.13H39c1.06-.19,1.64-.64,1.76-1.37a3,3,0,0,0,0-.77Z"/><path class="cls-3" d="M45.2,119.47l2.67,6.83s0,0,0,0l-2.22.87v0l-.27-.69c-.11-.28-.25-.43-.43-.45a1.77,1.77,0,0,0-.92.18l-3.55,1.38a1.86,1.86,0,0,0-.83.81,1.83,1.83,0,0,0-.18,1.15l0,0a1.87,1.87,0,0,0-.9-.71,2,2,0,0,0-1.2,0l-4.73,1.84c-.6.24-.9.48-.9.73a.87.87,0,0,0,0,.35l.29.74s0,0,0,0l-2,.78s0,0,0,0l-2.66-6.83s0,0,0,0l2-.78s0,0,0,0l.29.76a.55.55,0,0,0,.5.39,2.44,2.44,0,0,0,.81-.18l4.41-1.72a1.93,1.93,0,0,0,1.38-2.09.56.56,0,0,1,0-.07h0l.18.2a1.63,1.63,0,0,0,1,.62,2.29,2.29,0,0,0,1.17-.14l3.29-1.28c.49-.19.77-.39.83-.59a.86.86,0,0,0-.06-.53l-.26-.67v0l2.22-.86S45.2,119.46,45.2,119.47Z"/><path class="cls-3" d="M53.34,135.4l.23.35a7.28,7.28,0,0,1,1,2.59,6.38,6.38,0,0,1,.09,1.13.63.63,0,0,0,0,.19l.87-.43.05,0,1.56,2.33s0,0,0,.06l-5.69,3.78s0,0,0,0l-2.8-4.2s0,0,0,0a8.49,8.49,0,0,0,2.84-2.75,1,1,0,0,0,0-1l0,0a1.19,1.19,0,0,0-1.19-.57A14.54,14.54,0,0,0,47.35,138a5.67,5.67,0,0,0-.53.32l-.06,0c-1,.64-1.34,1.34-1.14,2.12a1.51,1.51,0,0,0,.09.33h0a1.66,1.66,0,0,0-.2-.16,1.87,1.87,0,0,0-1.46-.4,1.71,1.71,0,0,0-.62.18A42.66,42.66,0,0,0,40,143c-1,.95-1.18,1.81-.68,2.56a2,2,0,0,0,1,.71,1.57,1.57,0,0,0,.65-.1,9.12,9.12,0,0,0,1.62-.75l1-.66c.38-.26.59-.47.62-.65s-.09-.38-.37-.8l-.07-.1a0,0,0,0,1,0,0l2-1.33s0,0,0,0l3.91,5.88a0,0,0,0,1,0,0l-.29.2-1.72,1.14a.83.83,0,0,0-.56-.23,1.32,1.32,0,0,0-.71.21q-3.49,2.38-5.09,3.44l0,0-1.64-2.47s.12-.17.41-.43l.65-.58-.06-.1a4.75,4.75,0,0,1-1-.19,4.86,4.86,0,0,1-2.87-2.19,5.19,5.19,0,0,1-1-3.82,8.16,8.16,0,0,1,.31-1.43,8.28,8.28,0,0,1,.66-1.35A8.75,8.75,0,0,1,38,138.34a14.93,14.93,0,0,1,1.67-1.56l1.12-.89a2.32,2.32,0,0,0,.47-.85l.06-.28a1.49,1.49,0,0,0-.17-.77l0,0a2.33,2.33,0,0,0,.23.23,1.85,1.85,0,0,0,1.28.4,2.32,2.32,0,0,0,.85-.27,10.46,10.46,0,0,1,1.65-.71,10.93,10.93,0,0,1,2.26-.46,9.75,9.75,0,0,1,2.32.06,7.05,7.05,0,0,1,1.55.4A5,5,0,0,1,53.34,135.4Z"/><path class="cls-2" d="M92.93,61.76a2.54,2.54,0,0,0,1.17,0,2.57,2.57,0,0,0,1-.49,2.5,2.5,0,0,0,.67-.86,3.39,3.39,0,0,0-.08-3A2.41,2.41,0,0,0,94.2,56.3a2.12,2.12,0,0,0-1.11-.07,2.57,2.57,0,0,0-1,.45,3.4,3.4,0,0,0-.78.82,3.65,3.65,0,0,0-.49,1,4.18,4.18,0,0,0,0,2.88A9.61,9.61,0,0,0,92.55,64a26,26,0,0,1,2.08,2.77,13.74,13.74,0,0,1,1.46,2.92,10,10,0,0,1,.6,3,7.32,7.32,0,0,1-.59,3.11A6.12,6.12,0,0,1,95,77.62a6,6,0,0,1-1.54,1.21,6.36,6.36,0,0,1-1.89.68,6.5,6.5,0,0,1-2.12.07A5.92,5.92,0,0,1,86,78.12a8.26,8.26,0,0,1-2.17-3,8.57,8.57,0,0,1-.69-3.61,6,6,0,0,1,1-3.3,5.41,5.41,0,0,1,1.4-1.42,3.28,3.28,0,0,1,1.64-.61,3.48,3.48,0,0,1,1.47.14,3.66,3.66,0,0,1,1,.53c.77.57,1.15,1,1.15,1.36s-.32.41-.94.25a2.83,2.83,0,0,0-1.93.21,4.8,4.8,0,0,0-1.74,1.42,5.78,5.78,0,0,0-.75,1.35,6.24,6.24,0,0,0-.19,3.78,4.52,4.52,0,0,0,1,1.92,4.08,4.08,0,0,0,2.33,1.38,4.83,4.83,0,0,0,2.45-.2A5.45,5.45,0,0,0,93.19,77a4.5,4.5,0,0,0,1.16-2,6.06,6.06,0,0,0,.13-2.4,10.24,10.24,0,0,0-.66-2.39,11,11,0,0,0-1.26-2.26,16.55,16.55,0,0,0-1.67-2,7.12,7.12,0,0,1-1.34-2.13,8.92,8.92,0,0,1-.63-2.42A8.21,8.21,0,0,1,89,58.94a5.28,5.28,0,0,1,.82-2,4.07,4.07,0,0,1,1.57-1.36,4.41,4.41,0,0,1,2.35-.39,4.35,4.35,0,0,1,1.63.45,5.14,5.14,0,0,1,1.36,1,5.27,5.27,0,0,1,1,1.43,5.1,5.1,0,0,1,.42,1.74A4.65,4.65,0,0,1,97.77,62a3.62,3.62,0,0,1-1.14,1.46,2.68,2.68,0,0,1-1.38.47,2.5,2.5,0,0,1-1.5-.32,2.11,2.11,0,0,1-.66-.72A1.6,1.6,0,0,1,92.93,61.76Z"/><path class="cls-2" d="M101.26,73.51a1.39,1.39,0,0,0,.68-.34,4.28,4.28,0,0,0,.81-.83,5.91,5.91,0,0,0,.75-1.25,6.3,6.3,0,0,0,.49-1.61l.84.65a9.19,9.19,0,0,1-.67,2.17,7.49,7.49,0,0,1-1,1.69,5.08,5.08,0,0,1-1.26,1.13,3.23,3.23,0,0,1-1.31.48,2.09,2.09,0,0,1-1.08-.17,2,2,0,0,1-.84-.71,3.33,3.33,0,0,1-.45-1.27,5.5,5.5,0,0,1,.06-1.79l1.07-5.9-1.25.13.19-1.1,1.25-.13,1-5.28,2.44-1-1.08,6,2-.21-.13,1.1-2,.22-1,5.89a2.71,2.71,0,0,0,0,1.62C100.78,73.38,101,73.54,101.26,73.51Z"/><path class="cls-2" d="M111.83,63.38l-1.24,7A7.59,7.59,0,0,0,110.4,72c0,.36.14.53.38.5s.71-.41,1-1.11a16.41,16.41,0,0,0,.71-2.81l.83.65a12.33,12.33,0,0,1-1.17,3.83,2.63,2.63,0,0,1-2,1.53,1.59,1.59,0,0,1-1.52-.58,3.26,3.26,0,0,1-.47-2.09,10.2,10.2,0,0,1-1.22,2.2,2,2,0,0,1-1.3.94,1.57,1.57,0,0,1-1-.2,1.72,1.72,0,0,1-.7-.91,4.72,4.72,0,0,1-.25-1.68,12.64,12.64,0,0,1,.33-2.51c.2-1,.39-1.84.58-2.55s.36-1.3.51-1.77.31-1,.44-1.38l2.29-.24c-.2.64-.4,1.29-.58,1.95s-.34,1.16-.5,1.83-.3,1.31-.41,1.92c-.42,2.35-.41,3.5,0,3.46.15,0,.37-.32.65-.91s.6-1.3.92-2.14.63-1.72.94-2.66.55-1.78.74-2.5l.28-1.17Z"/><path class="cls-2" d="M112.45,68.61a16.59,16.59,0,0,1,1-3.12,7.61,7.61,0,0,1,1.19-2,3,3,0,0,1,1.29-.94,2,2,0,0,1,1.26,0,1.37,1.37,0,0,1,.68.51q.58-2.85,1.2-5.09a28.16,28.16,0,0,1,1.26-3.73,6.35,6.35,0,0,1,1.34-2.12,1.22,1.22,0,0,1,1.45-.29,1.83,1.83,0,0,1,.85,1.58,9.47,9.47,0,0,1-.29,3.22,32.25,32.25,0,0,1-1.49,4.57,48.91,48.91,0,0,1-2.76,5.63c-.11.86-.19,1.58-.22,2.16a9.7,9.7,0,0,0,0,1.42,3,3,0,0,0,.18.83c.09.19.19.3.29.33s.31,0,.54-.18a4.14,4.14,0,0,0,.69-.83,7.17,7.17,0,0,0,.65-1.33,9.06,9.06,0,0,0,.46-1.65l.83.65a8.7,8.7,0,0,1-1.66,4.23,2.42,2.42,0,0,1-2.29,1,1.82,1.82,0,0,1-1-.58,3.26,3.26,0,0,1-.65-1.54,8.17,8.17,0,0,1-.75,1.34,4.27,4.27,0,0,1-.89,1,2.37,2.37,0,0,1-1,.48,1.66,1.66,0,0,1-1.06-.15,2.6,2.6,0,0,1-1.18-1.92A8.47,8.47,0,0,1,112.45,68.61ZM117,63.68a.53.53,0,0,0-.61.2,4.06,4.06,0,0,0-.61.92,10,10,0,0,0-.57,1.39,11.27,11.27,0,0,0-.4,1.62,11.94,11.94,0,0,0-.19,1.43,9.54,9.54,0,0,0,0,1.29,4,4,0,0,0,.16,1c.09.26.2.41.35.46s.33,0,.52-.24a4.28,4.28,0,0,0,.58-.93,9.4,9.4,0,0,0,.54-1.39,11.24,11.24,0,0,0,.39-1.62,22.53,22.53,0,0,1,.37-2.7,3,3,0,0,0-.12-.92A.79.79,0,0,0,117,63.68Zm5.88-9.41c-.11-.05-.26.12-.45.52a18.89,18.89,0,0,0-.65,1.8c-.24.8-.51,1.79-.8,3s-.61,2.51-.93,4q.75-1.68,1.35-3.3c.41-1.07.74-2,1-2.9a20.77,20.77,0,0,0,.54-2.13C123,54.68,123,54.36,122.85,54.27Z"/><path class="cls-2" d="M121.67,69.19l.06-.26,1.21-6.72,2.32-.24-1.23,7a8.79,8.79,0,0,0-.21,1.64c0,.36.14.53.4.5s.7-.41,1-1.1a15.78,15.78,0,0,0,.72-2.82l.83.66a13.09,13.09,0,0,1-1.18,3.82,2.61,2.61,0,0,1-2,1.53,1.59,1.59,0,0,1-1.72-.9A5.11,5.11,0,0,1,121.67,69.19Zm4.19-9.38a1.76,1.76,0,0,1-.4,1.13,1.55,1.55,0,0,1-1,.56,1.19,1.19,0,0,1-1-.35,1.32,1.32,0,0,1-.41-1,1.67,1.67,0,0,1,.4-1.13,1.4,1.4,0,0,1,1-.58,1.12,1.12,0,0,1,1,.37A1.47,1.47,0,0,1,125.86,59.81Z"/><path class="cls-2" d="M131.54,66.41a6.66,6.66,0,0,0,0-2.88c-.19-.73-.38-1.13-.58-1.21a1.13,1.13,0,0,1,1,.14,1.88,1.88,0,0,1,.63.91,5.49,5.49,0,0,1,.25,1.48,7.14,7.14,0,0,1-.15,1.81A13.11,13.11,0,0,1,132,69a8.24,8.24,0,0,1-1.16,2,4.54,4.54,0,0,1-1.52,1.31,2.25,2.25,0,0,1-1.82.1A2.72,2.72,0,0,1,126,70.78a5.83,5.83,0,0,1-.12-3.33,14.19,14.19,0,0,1,1-3.19,7.81,7.81,0,0,1,1.31-2.1,3.57,3.57,0,0,1,1.48-1,2.31,2.31,0,0,1,1.49,0,2.16,2.16,0,0,1,.66.41,1.32,1.32,0,0,1,.43.68,2,2,0,0,0-1.1-.3,1.72,1.72,0,0,0-1.14.53,4.65,4.65,0,0,0-1,1.53,11.57,11.57,0,0,0-.77,2.72,6.06,6.06,0,0,0,0,2.47,1.67,1.67,0,0,0,.92,1.28.66.66,0,0,0,.71-.15,3.33,3.33,0,0,0,.72-.88,8.23,8.23,0,0,0,.63-1.36A8.47,8.47,0,0,0,131.54,66.41Z"/></g></g></svg>